<svg width="58" height="58" viewBox="0 0 58 58" fill="none" xmlns="http://www.w3.org/2000/svg">
<path d="M21 19V39H37V35H25V31H37V27H25V23H37V19H21ZM13 5H45C50.3333 5 53 7.66667 53 13V45C53 50.3333 50.3333 53 45 53H13C7.66667 53 5 50.3333 5 45V13C5 7.66667 7.66667 5 13 5Z" fill="white"/>
<path d="M0 45V13C0 9.56261 0.863111 6.06658 3.46484 3.46484C6.06658 0.863111 9.56261 0 13 0V5C7.66667 5 5 7.66667 5 13V45C5 50.3333 7.66667 53 13 53H45C50.3333 53 53 50.3333 53 45V13C53 7.66667 50.3333 5 45 5V0C48.4374 0 51.9334 0.863111 54.5352 3.46484C57.1369 6.06658 58 9.56261 58 13V45C58 48.4374 57.1369 51.9334 54.5352 54.5352C51.9334 57.1369 48.4374 58 45 58H13C9.56261 58 6.06658 57.1369 3.46484 54.5352C0.863111 51.9334 0 48.4374 0 45ZM37 19V23H25V27H37V31H25V35H37V39H21V19H37ZM45 0V5H13V0H45Z" fill="black"/>
</svg>
